<svg xmlns="http://www.w3.org/2000/svg" viewBox="0 0 750 700" preserveAspectRatio="xMidYMid meet"><g fill="#6C2C91"><circle cx="477.4" cy="94.0" r="2.6"/><circle cx="479.1" cy="108.0" r="2.6"/><circle cx="329.0" cy="124.7" r="2.6"/><circle cx="345.1" cy="117.4" r="2.6"/><circle cx="363.0" cy="121.5" r="2.6"/><circle cx="483.5" cy="119.5" r="2.6"/><circle cx="492.7" cy="122.7" r="2.6"/><circle cx="284.8" cy="130.7" r="2.6"/><circle cx="304.1" cy="133.9" r="2.6"/><circle cx="318.9" cy="136.2" r="2.6"/><circle cx="333.1" cy="131.7" r="2.6"/><circle cx="347.7" cy="132.3" r="2.6"/><circle cx="359.1" cy="138.3" r="2.6"/><circle cx="378.2" cy="132.0" r="2.6"/><circle cx="387.3" cy="134.0" r="2.6"/><circle cx="405.2" cy="133.9" r="2.6"/><circle cx="437.2" cy="138.8" r="2.6"/><circle cx="445.6" cy="135.6" r="2.6"/><circle cx="467.5" cy="130.6" r="2.6"/><circle cx="483.2" cy="131.3" r="2.6"/><circle cx="221.7" cy="154.2" r="2.6"/><circle cx="241.7" cy="153.8" r="2.6"/><circle cx="251.8" cy="152.7" r="2.6"/><circle cx="266.3" cy="150.3" r="2.6"/><circle cx="286.3" cy="148.7" r="2.6"/><circle cx="303.6" cy="150.5" r="2.6"/><circle cx="315.8" cy="153.7" r="2.6"/><circle cx="326.2" cy="154.7" r="2.6"/><circle cx="346.2" cy="149.0" r="2.6"/><circle cx="362.9" cy="147.7" r="2.6"/><circle cx="379.7" cy="150.7" r="2.6"/><circle cx="388.7" cy="152.5" r="2.6"/><circle cx="404.4" cy="146.9" r="2.6"/><circle cx="422.3" cy="145.7" r="2.6"/><circle cx="438.1" cy="147.6" r="2.6"/><circle cx="451.3" cy="154.6" r="2.6"/><circle cx="465.8" cy="151.6" r="2.6"/><circle cx="478.2" cy="145.2" r="2.6"/><circle cx="197.7" cy="167.1" r="2.6"/><circle cx="205.3" cy="168.3" r="2.6"/><circle cx="227.4" cy="164.7" r="2.6"/><circle cx="242.3" cy="164.5" r="2.6"/><circle cx="252.4" cy="161.2" r="2.6"/><circle cx="267.4" cy="160.6" r="2.6"/><circle cx="283.4" cy="167.4" r="2.6"/><circle cx="301.9" cy="168.3" r="2.6"/><circle cx="317.0" cy="162.8" r="2.6"/><circle cx="330.5" cy="164.4" r="2.6"/><circle cx="347.8" cy="165.2" r="2.6"/><circle cx="379.5" cy="162.3" r="2.6"/><circle cx="393.6" cy="160.3" r="2.6"/><circle cx="437.4" cy="163.3" r="2.6"/><circle cx="453.6" cy="163.4" r="2.6"/><circle cx="462.5" cy="168.9" r="2.6"/><circle cx="147.9" cy="182.1" r="2.6"/><circle cx="163.7" cy="178.3" r="2.6"/><circle cx="198.4" cy="181.1" r="2.6"/><circle cx="205.5" cy="179.2" r="2.6"/><circle cx="224.4" cy="182.6" r="2.6"/><circle cx="238.5" cy="182.0" r="2.6"/><circle cx="255.4" cy="177.3" r="2.6"/><circle cx="273.5" cy="176.1" r="2.6"/><circle cx="288.1" cy="176.8" r="2.6"/><circle cx="295.2" cy="177.1" r="2.6"/><circle cx="373.5" cy="183.2" r="2.6"/><circle cx="147.1" cy="196.3" r="2.6"/><circle cx="161.2" cy="192.2" r="2.6"/><circle cx="178.9" cy="190.5" r="2.6"/><circle cx="194.0" cy="197.8" r="2.6"/><circle cx="211.9" cy="195.0" r="2.6"/><circle cx="226.3" cy="194.6" r="2.6"/><circle cx="236.6" cy="196.0" r="2.6"/><circle cx="273.9" cy="194.3" r="2.6"/><circle cx="285.7" cy="197.4" r="2.6"/><circle cx="299.2" cy="192.4" r="2.6"/><circle cx="317.1" cy="198.6" r="2.6"/><circle cx="559.2" cy="195.2" r="2.6"/><circle cx="133.6" cy="211.3" r="2.6"/><circle cx="153.1" cy="213.0" r="2.6"/><circle cx="164.7" cy="208.0" r="2.6"/><circle cx="180.5" cy="206.4" r="2.6"/><circle cx="198.2" cy="208.6" r="2.6"/><circle cx="213.4" cy="207.8" r="2.6"/><circle cx="223.8" cy="207.6" r="2.6"/><circle cx="239.3" cy="207.0" r="2.6"/><circle cx="267.9" cy="207.6" r="2.6"/><circle cx="283.1" cy="209.8" r="2.6"/><circle cx="299.3" cy="211.3" r="2.6"/><circle cx="316.5" cy="208.7" r="2.6"/><circle cx="334.1" cy="213.4" r="2.6"/><circle cx="340.7" cy="213.1" r="2.6"/><circle cx="133.7" cy="224.8" r="2.6"/><circle cx="150.2" cy="227.6" r="2.6"/><circle cx="162.2" cy="224.4" r="2.6"/><circle cx="179.3" cy="225.5" r="2.6"/><circle cx="198.1" cy="223.0" r="2.6"/><circle cx="213.1" cy="224.1" r="2.6"/><circle cx="225.0" cy="222.8" r="2.6"/><circle cx="100.7" cy="242.6" r="2.6"/><circle cx="122.1" cy="243.4" r="2.6"/><circle cx="137.2" cy="236.0" r="2.6"/><circle cx="151.2" cy="242.0" r="2.6"/><circle cx="164.6" cy="244.2" r="2.6"/><circle cx="177.6" cy="244.5" r="2.6"/><circle cx="197.1" cy="235.3" r="2.6"/><circle cx="205.3" cy="241.4" r="2.6"/><circle cx="228.0" cy="236.0" r="2.6"/><circle cx="238.2" cy="242.2" r="2.6"/><circle cx="299.4" cy="241.7" r="2.6"/><circle cx="328.7" cy="241.4" r="2.6"/><circle cx="400.8" cy="244.5" r="2.6"/><circle cx="422.0" cy="243.1" r="2.6"/><circle cx="102.0" cy="252.0" r="2.6"/><circle cx="116.9" cy="256.9" r="2.6"/><circle cx="133.7" cy="255.6" r="2.6"/><circle cx="149.1" cy="255.2" r="2.6"/><circle cx="161.6" cy="250.6" r="2.6"/><circle cx="184.8" cy="253.8" r="2.6"/><circle cx="191.2" cy="256.3" r="2.6"/><circle cx="212.8" cy="251.7" r="2.6"/><circle cx="225.9" cy="253.5" r="2.6"/><circle cx="240.2" cy="250.4" r="2.6"/><circle cx="250.5" cy="259.7" r="2.6"/><circle cx="423.9" cy="250.8" r="2.6"/><circle cx="86.1" cy="274.1" r="2.6"/><circle cx="108.3" cy="271.2" r="2.6"/><circle cx="119.5" cy="268.5" r="2.6"/><circle cx="138.1" cy="269.8" r="2.6"/><circle cx="151.2" cy="266.6" r="2.6"/><circle cx="162.3" cy="265.7" r="2.6"/><circle cx="182.1" cy="270.5" r="2.6"/><circle cx="191.6" cy="273.6" r="2.6"/><circle cx="207.8" cy="269.2" r="2.6"/><circle cx="221.7" cy="267.8" r="2.6"/><circle cx="243.3" cy="268.4" r="2.6"/><circle cx="251.8" cy="269.9" r="2.6"/><circle cx="108.0" cy="288.5" r="2.6"/><circle cx="118.3" cy="287.0" r="2.6"/><circle cx="133.9" cy="287.4" r="2.6"/><circle cx="145.8" cy="288.6" r="2.6"/><circle cx="169.4" cy="285.0" r="2.6"/><circle cx="180.1" cy="285.3" r="2.6"/><circle cx="195.4" cy="280.4" r="2.6"/><circle cx="214.5" cy="282.3" r="2.6"/><circle cx="222.0" cy="281.2" r="2.6"/><circle cx="237.6" cy="288.0" r="2.6"/><circle cx="250.5" cy="281.1" r="2.6"/><circle cx="79.3" cy="298.0" r="2.6"/><circle cx="101.4" cy="300.9" r="2.6"/><circle cx="124.4" cy="300.1" r="2.6"/><circle cx="132.8" cy="299.7" r="2.6"/><circle cx="150.3" cy="296.6" r="2.6"/><circle cx="161.4" cy="296.5" r="2.6"/><circle cx="178.0" cy="299.1" r="2.6"/><circle cx="193.0" cy="297.5" r="2.6"/><circle cx="206.0" cy="300.4" r="2.6"/><circle cx="228.3" cy="301.1" r="2.6"/><circle cx="240.7" cy="301.4" r="2.6"/><circle cx="252.1" cy="302.0" r="2.6"/><circle cx="269.6" cy="300.5" r="2.6"/><circle cx="476.2" cy="297.4" r="2.6"/><circle cx="109.0" cy="313.3" r="2.6"/><circle cx="123.3" cy="318.2" r="2.6"/><circle cx="139.4" cy="312.2" r="2.6"/><circle cx="149.3" cy="318.9" r="2.6"/><circle cx="160.3" cy="310.7" r="2.6"/><circle cx="180.6" cy="315.0" r="2.6"/><circle cx="199.0" cy="317.6" r="2.6"/><circle cx="210.4" cy="319.8" r="2.6"/><circle cx="225.2" cy="315.2" r="2.6"/><circle cx="241.8" cy="313.9" r="2.6"/><circle cx="253.6" cy="315.9" r="2.6"/><circle cx="286.7" cy="315.2" r="2.6"/><circle cx="468.1" cy="319.7" r="2.6"/><circle cx="483.7" cy="314.2" r="2.6"/><circle cx="491.7" cy="313.0" r="2.6"/><circle cx="120.8" cy="328.5" r="2.6"/><circle cx="165.8" cy="334.4" r="2.6"/><circle cx="179.4" cy="331.2" r="2.6"/><circle cx="192.6" cy="325.6" r="2.6"/><circle cx="214.1" cy="333.4" r="2.6"/><circle cx="223.2" cy="333.8" r="2.6"/><circle cx="243.0" cy="328.1" r="2.6"/><circle cx="256.0" cy="334.4" r="2.6"/><circle cx="477.5" cy="325.5" r="2.6"/><circle cx="496.6" cy="328.5" r="2.6"/><circle cx="133.2" cy="342.4" r="2.6"/><circle cx="146.4" cy="347.1" r="2.6"/><circle cx="162.9" cy="344.1" r="2.6"/><circle cx="183.9" cy="347.6" r="2.6"/><circle cx="198.7" cy="348.5" r="2.6"/><circle cx="206.5" cy="342.9" r="2.6"/><circle cx="220.5" cy="346.7" r="2.6"/><circle cx="288.3" cy="343.6" r="2.6"/><circle cx="373.1" cy="343.9" r="2.6"/><circle cx="117.5" cy="357.5" r="2.6"/><circle cx="154.2" cy="358.6" r="2.6"/><circle cx="163.1" cy="363.7" r="2.6"/><circle cx="176.6" cy="360.6" r="2.6"/><circle cx="193.4" cy="363.0" r="2.6"/><circle cx="210.5" cy="362.5" r="2.6"/><circle cx="221.8" cy="361.6" r="2.6"/><circle cx="240.9" cy="359.6" r="2.6"/><circle cx="257.6" cy="363.2" r="2.6"/><circle cx="266.3" cy="358.0" r="2.6"/><circle cx="312.1" cy="361.9" r="2.6"/><circle cx="147.9" cy="376.6" r="2.6"/><circle cx="165.1" cy="374.2" r="2.6"/><circle cx="178.5" cy="374.4" r="2.6"/><circle cx="196.6" cy="378.1" r="2.6"/><circle cx="213.9" cy="371.8" r="2.6"/><circle cx="223.0" cy="374.5" r="2.6"/><circle cx="240.6" cy="373.5" r="2.6"/><circle cx="252.1" cy="371.0" r="2.6"/><circle cx="268.3" cy="374.6" r="2.6"/><circle cx="303.5" cy="379.6" r="2.6"/><circle cx="319.4" cy="376.2" r="2.6"/><circle cx="333.0" cy="370.8" r="2.6"/><circle cx="463.8" cy="375.8" r="2.6"/><circle cx="108.7" cy="391.2" r="2.6"/><circle cx="227.1" cy="385.6" r="2.6"/><circle cx="241.0" cy="386.2" r="2.6"/><circle cx="255.5" cy="392.9" r="2.6"/><circle cx="266.3" cy="394.1" r="2.6"/><circle cx="286.7" cy="387.6" r="2.6"/><circle cx="297.1" cy="389.5" r="2.6"/><circle cx="318.2" cy="390.8" r="2.6"/><circle cx="341.3" cy="392.9" r="2.6"/><circle cx="465.0" cy="393.6" r="2.6"/><circle cx="124.2" cy="406.7" r="2.6"/><circle cx="166.3" cy="403.6" r="2.6"/><circle cx="180.5" cy="404.1" r="2.6"/><circle cx="190.8" cy="403.4" r="2.6"/><circle cx="208.3" cy="409.7" r="2.6"/><circle cx="224.8" cy="403.7" r="2.6"/><circle cx="284.6" cy="404.5" r="2.6"/><circle cx="300.7" cy="403.1" r="2.6"/><circle cx="311.8" cy="400.8" r="2.6"/><circle cx="328.1" cy="403.2" r="2.6"/><circle cx="347.2" cy="405.5" r="2.6"/><circle cx="165.5" cy="421.5" r="2.6"/><circle cx="181.0" cy="418.4" r="2.6"/><circle cx="197.3" cy="417.7" r="2.6"/><circle cx="212.0" cy="422.5" r="2.6"/><circle cx="227.6" cy="418.2" r="2.6"/><circle cx="242.6" cy="424.6" r="2.6"/><circle cx="281.5" cy="415.3" r="2.6"/><circle cx="317.6" cy="418.7" r="2.6"/><circle cx="355.5" cy="416.5" r="2.6"/><circle cx="123.5" cy="432.0" r="2.6"/><circle cx="148.1" cy="430.4" r="2.6"/><circle cx="161.3" cy="439.6" r="2.6"/><circle cx="175.3" cy="439.0" r="2.6"/><circle cx="191.6" cy="437.3" r="2.6"/><circle cx="206.1" cy="431.8" r="2.6"/><circle cx="226.8" cy="431.1" r="2.6"/><circle cx="238.5" cy="439.0" r="2.6"/><circle cx="257.1" cy="438.7" r="2.6"/><circle cx="274.6" cy="430.5" r="2.6"/><circle cx="329.3" cy="431.2" r="2.6"/><circle cx="167.3" cy="448.8" r="2.6"/><circle cx="182.0" cy="449.0" r="2.6"/><circle cx="195.3" cy="451.1" r="2.6"/><circle cx="211.7" cy="448.3" r="2.6"/><circle cx="226.2" cy="450.4" r="2.6"/><circle cx="237.3" cy="451.1" r="2.6"/><circle cx="269.7" cy="452.1" r="2.6"/><circle cx="356.9" cy="453.1" r="2.6"/><circle cx="482.9" cy="450.2" r="2.6"/><circle cx="183.9" cy="467.5" r="2.6"/><circle cx="190.4" cy="465.9" r="2.6"/><circle cx="209.6" cy="464.6" r="2.6"/><circle cx="228.3" cy="464.2" r="2.6"/><circle cx="239.7" cy="468.7" r="2.6"/><circle cx="286.6" cy="467.3" r="2.6"/><circle cx="392.4" cy="465.6" r="2.6"/><circle cx="422.0" cy="464.8" r="2.6"/><circle cx="181.7" cy="481.7" r="2.6"/><circle cx="193.0" cy="477.2" r="2.6"/><circle cx="213.2" cy="476.6" r="2.6"/><circle cx="229.0" cy="477.2" r="2.6"/><circle cx="236.2" cy="476.1" r="2.6"/><circle cx="257.7" cy="484.3" r="2.6"/><circle cx="511.7" cy="476.3" r="2.6"/><circle cx="193.4" cy="498.3" r="2.6"/><circle cx="213.6" cy="494.8" r="2.6"/><circle cx="221.6" cy="491.1" r="2.6"/><circle cx="243.6" cy="491.3" r="2.6"/><circle cx="255.0" cy="495.3" r="2.6"/><circle cx="431.7" cy="492.7" r="2.6"/><circle cx="213.6" cy="508.1" r="2.6"/><circle cx="229.4" cy="510.3" r="2.6"/><circle cx="244.3" cy="506.3" r="2.6"/><circle cx="259.5" cy="512.8" r="2.6"/><circle cx="267.6" cy="513.2" r="2.6"/><circle cx="438.2" cy="512.8" r="2.6"/><circle cx="359.0" cy="527.4" r="2.6"/><circle cx="274.2" cy="542.3" r="2.6"/><circle cx="482.4" cy="540.0" r="2.6"/><circle cx="596.7" cy="557.7" r="2.6"/><circle cx="582.0" cy="572.9" r="2.6"/><circle cx="596.8" cy="570.1" r="2.6"/><circle cx="583.2" cy="586.2" r="2.6"/><circle cx="317.9" cy="633.8" r="2.6"/><circle cx="314.8" cy="642.7" r="2.6"/><circle cx="325.7" cy="641.0" r="2.6"/><circle cx="341.8" cy="641.1" r="2.6"/><circle cx="361.2" cy="646.9" r="2.6"/><circle cx="372.7" cy="647.8" r="2.6"/><circle cx="392.2" cy="643.5" r="2.6"/><circle cx="327.9" cy="655.6" r="2.6"/><circle cx="356.4" cy="659.7" r="2.6"/><circle cx="376.1" cy="658.1" r="2.6"/><circle cx="385.9" cy="662.4" r="2.6"/><circle cx="407.6" cy="659.4" r="2.6"/><circle cx="416.0" cy="659.0" r="2.6"/><circle cx="431.1" cy="664.4" r="2.6"/><circle cx="445.7" cy="658.0" r="2.6"/><circle cx="467.6" cy="656.5" r="2.6"/><circle cx="476.2" cy="655.9" r="2.6"/><circle cx="391.7" cy="676.5" r="2.6"/><circle cx="400.7" cy="678.6" r="2.6"/><circle cx="420.5" cy="674.6" r="2.6"/><circle cx="433.5" cy="677.7" r="2.6"/><circle cx="462.3" cy="673.5" r="2.6"/><circle cx="477.6" cy="671.2" r="2.6"/></g><circle cx="352" cy="360" r="17" fill="none" stroke="#6C2C91" stroke-width="1.2" opacity="0.45"/><circle cx="352" cy="360" r="27" fill="none" stroke="#6C2C91" stroke-width="1" opacity="0.25"/><circle cx="352" cy="360" r="4.6" fill="#51206E"/><text x="364" y="365" font-family="'IBM Plex Mono',monospace" font-size="13" fill="#1B1622" stroke="#F6F3EE" stroke-width="3" paint-order="stroke" style="paint-order:stroke">Αθήνα</text></svg>