<svg xmlns="http://www.w3.org/2000/svg" viewBox="0 50 1440 106" preserveAspectRatio="xMidYMax meet"><g fill="none" stroke="#1B1622" stroke-width="1.2" stroke-linecap="round" stroke-linejoin="round"><path d="M0 150 H1440"/><rect x="8.8" y="92" width="52" height="58"/><rect x="18.8" y="100.6" width="6" height="6"/><rect x="18.8" y="112.2" width="6" height="6"/><rect x="18.8" y="123.8" width="6" height="6"/><rect x="18.8" y="135.4" width="6" height="6"/><rect x="31.8" y="100.6" width="6" height="6"/><rect x="31.8" y="112.2" width="6" height="6"/><rect x="31.8" y="123.8" width="6" height="6"/><rect x="31.8" y="135.4" width="6" height="6"/><rect x="44.8" y="100.6" width="6" height="6"/><rect x="44.8" y="112.2" width="6" height="6"/><rect x="44.8" y="123.8" width="6" height="6"/><rect x="44.8" y="135.4" width="6" height="6"/><line x1="96.7" y1="150" x2="96.7" y2="130.2"/><circle cx="96.7" cy="116.7" r="13.5"/><circle cx="87.3" cy="122.1" r="8.1"/><circle cx="106.2" cy="122.1" r="8.1"/><rect x="132.6" y="108" width="30" height="42"/><rect x="139.6" y="115.5" width="6" height="6"/><rect x="139.6" y="126.0" width="6" height="6"/><rect x="139.6" y="136.5" width="6" height="6"/><rect x="149.6" y="115.5" width="6" height="6"/><rect x="149.6" y="126.0" width="6" height="6"/><rect x="149.6" y="136.5" width="6" height="6"/><line x1="194.2" y1="150" x2="194.2" y2="98.0"/><circle cx="194.2" cy="98.0" r="2.2"/><line x1="194.2" y1="98.0" x2="194.2" y2="83.0"/><line x1="194.2" y1="98.0" x2="207.2" y2="106.0"/><line x1="194.2" y1="98.0" x2="181.2" y2="106.0"/><rect x="225.9" y="72" width="50" height="78"/><rect x="235.4" y="82.0" width="6" height="6"/><rect x="235.4" y="95.0" width="6" height="6"/><rect x="235.4" y="108.0" width="6" height="6"/><rect x="235.4" y="121.0" width="6" height="6"/><rect x="235.4" y="134.0" width="6" height="6"/><rect x="247.9" y="82.0" width="6" height="6"/><rect x="247.9" y="95.0" width="6" height="6"/><rect x="247.9" y="108.0" width="6" height="6"/><rect x="247.9" y="121.0" width="6" height="6"/><rect x="247.9" y="134.0" width="6" height="6"/><rect x="260.4" y="82.0" width="6" height="6"/><rect x="260.4" y="95.0" width="6" height="6"/><rect x="260.4" y="108.0" width="6" height="6"/><rect x="260.4" y="121.0" width="6" height="6"/><rect x="260.4" y="134.0" width="6" height="6"/><line x1="313.8" y1="150" x2="313.8" y2="128.0"/><circle cx="313.8" cy="113.0" r="15.0"/><circle cx="303.3" cy="119.0" r="9.0"/><circle cx="324.3" cy="119.0" r="9.0"/><rect x="351.7" y="96" width="44" height="54"/><rect x="359.7" y="106.5" width="6" height="6"/><rect x="359.7" y="120.0" width="6" height="6"/><rect x="359.7" y="133.5" width="6" height="6"/><rect x="370.7" y="106.5" width="6" height="6"/><rect x="370.7" y="120.0" width="6" height="6"/><rect x="370.7" y="133.5" width="6" height="6"/><rect x="381.7" y="106.5" width="6" height="6"/><rect x="381.7" y="120.0" width="6" height="6"/><rect x="381.7" y="133.5" width="6" height="6"/><rect x="416.3739130434782" y="144" width="90" height="6"/><line x1="425.4" y1="144" x2="425.4" y2="102"/><line x1="439.8" y1="144" x2="439.8" y2="102"/><line x1="454.2" y1="144" x2="454.2" y2="102"/><line x1="468.6" y1="144" x2="468.6" y2="102"/><line x1="483.0" y1="144" x2="483.0" y2="102"/><line x1="497.4" y1="144" x2="497.4" y2="102"/><rect x="413.3739130434782" y="96" width="96" height="6"/><path d="M413.3739130434782,96 L461.4,80 L509.4,96"/><rect x="527.0" y="64" width="28" height="86"/><rect x="533.4" y="73.3" width="6" height="6"/><rect x="533.4" y="85.6" width="6" height="6"/><rect x="533.4" y="97.9" width="6" height="6"/><rect x="533.4" y="110.1" width="6" height="6"/><rect x="533.4" y="122.4" width="6" height="6"/><rect x="533.4" y="134.7" width="6" height="6"/><rect x="542.7" y="73.3" width="6" height="6"/><rect x="542.7" y="85.6" width="6" height="6"/><rect x="542.7" y="97.9" width="6" height="6"/><rect x="542.7" y="110.1" width="6" height="6"/><rect x="542.7" y="122.4" width="6" height="6"/><rect x="542.7" y="134.7" width="6" height="6"/><rect x="572.7" y="104" width="42" height="46"/><rect x="580.2" y="112.5" width="6" height="6"/><rect x="580.2" y="124.0" width="6" height="6"/><rect x="580.2" y="135.5" width="6" height="6"/><rect x="590.7" y="112.5" width="6" height="6"/><rect x="590.7" y="124.0" width="6" height="6"/><rect x="590.7" y="135.5" width="6" height="6"/><rect x="601.2" y="112.5" width="6" height="6"/><rect x="601.2" y="124.0" width="6" height="6"/><rect x="601.2" y="135.5" width="6" height="6"/><rect x="632.3434782608695" y="112" width="50" height="38"/><path d="M644.3,112 a13,13 0 0 1 26,0"/><line x1="657.3" y1="91.0" x2="657.3" y2="99.0"/><line x1="653.3" y1="95.0" x2="661.3" y2="95.0"/><rect x="641.3434782608695" y="124" width="7" height="15"/><rect x="666.3434782608695" y="124" width="7" height="15"/><rect x="700.0" y="90" width="54" height="60"/><rect x="707.8" y="99.0" width="6" height="6"/><rect x="707.8" y="111.0" width="6" height="6"/><rect x="707.8" y="123.0" width="6" height="6"/><rect x="707.8" y="135.0" width="6" height="6"/><rect x="718.6" y="99.0" width="6" height="6"/><rect x="718.6" y="111.0" width="6" height="6"/><rect x="718.6" y="123.0" width="6" height="6"/><rect x="718.6" y="135.0" width="6" height="6"/><rect x="729.4" y="99.0" width="6" height="6"/><rect x="729.4" y="111.0" width="6" height="6"/><rect x="729.4" y="123.0" width="6" height="6"/><rect x="729.4" y="135.0" width="6" height="6"/><rect x="740.2" y="99.0" width="6" height="6"/><rect x="740.2" y="111.0" width="6" height="6"/><rect x="740.2" y="123.0" width="6" height="6"/><rect x="740.2" y="135.0" width="6" height="6"/><line x1="785.7" y1="150" x2="785.7" y2="98.0"/><circle cx="785.7" cy="98.0" r="2.2"/><line x1="785.7" y1="98.0" x2="785.7" y2="83.0"/><line x1="785.7" y1="98.0" x2="798.7" y2="106.0"/><line x1="785.7" y1="98.0" x2="772.7" y2="106.0"/><rect x="817.3" y="78" width="50" height="72"/><rect x="826.8" y="87.0" width="6" height="6"/><rect x="826.8" y="99.0" width="6" height="6"/><rect x="826.8" y="111.0" width="6" height="6"/><rect x="826.8" y="123.0" width="6" height="6"/><rect x="826.8" y="135.0" width="6" height="6"/><rect x="839.3" y="87.0" width="6" height="6"/><rect x="839.3" y="99.0" width="6" height="6"/><rect x="839.3" y="111.0" width="6" height="6"/><rect x="839.3" y="123.0" width="6" height="6"/><rect x="839.3" y="135.0" width="6" height="6"/><rect x="851.8" y="87.0" width="6" height="6"/><rect x="851.8" y="99.0" width="6" height="6"/><rect x="851.8" y="111.0" width="6" height="6"/><rect x="851.8" y="123.0" width="6" height="6"/><rect x="851.8" y="135.0" width="6" height="6"/><line x1="903.2" y1="150" x2="903.2" y2="130.2"/><circle cx="903.2" cy="116.7" r="13.5"/><circle cx="893.7" cy="122.1" r="8.1"/><circle cx="912.6" cy="122.1" r="8.1"/><rect x="939.1" y="98" width="44" height="52"/><rect x="947.1" y="108.0" width="6" height="6"/><rect x="947.1" y="121.0" width="6" height="6"/><rect x="947.1" y="134.0" width="6" height="6"/><rect x="958.1" y="108.0" width="6" height="6"/><rect x="958.1" y="121.0" width="6" height="6"/><rect x="958.1" y="134.0" width="6" height="6"/><rect x="969.1" y="108.0" width="6" height="6"/><rect x="969.1" y="121.0" width="6" height="6"/><rect x="969.1" y="134.0" width="6" height="6"/><rect x="1000.7" y="66" width="58" height="84"/><rect x="1009.3" y="75.0" width="6" height="6"/><rect x="1009.3" y="87.0" width="6" height="6"/><rect x="1009.3" y="99.0" width="6" height="6"/><rect x="1009.3" y="111.0" width="6" height="6"/><rect x="1009.3" y="123.0" width="6" height="6"/><rect x="1009.3" y="135.0" width="6" height="6"/><rect x="1020.9" y="75.0" width="6" height="6"/><rect x="1020.9" y="87.0" width="6" height="6"/><rect x="1020.9" y="99.0" width="6" height="6"/><rect x="1020.9" y="111.0" width="6" height="6"/><rect x="1020.9" y="123.0" width="6" height="6"/><rect x="1020.9" y="135.0" width="6" height="6"/><rect x="1032.5" y="75.0" width="6" height="6"/><rect x="1032.5" y="87.0" width="6" height="6"/><rect x="1032.5" y="99.0" width="6" height="6"/><rect x="1032.5" y="111.0" width="6" height="6"/><rect x="1032.5" y="123.0" width="6" height="6"/><rect x="1032.5" y="135.0" width="6" height="6"/><rect x="1044.1" y="75.0" width="6" height="6"/><rect x="1044.1" y="87.0" width="6" height="6"/><rect x="1044.1" y="99.0" width="6" height="6"/><rect x="1044.1" y="111.0" width="6" height="6"/><rect x="1044.1" y="123.0" width="6" height="6"/><rect x="1044.1" y="135.0" width="6" height="6"/><rect x="1076.4" y="92" width="40" height="58"/><rect x="1083.4" y="100.6" width="6" height="6"/><rect x="1083.4" y="112.2" width="6" height="6"/><rect x="1083.4" y="123.8" width="6" height="6"/><rect x="1083.4" y="135.4" width="6" height="6"/><rect x="1093.4" y="100.6" width="6" height="6"/><rect x="1093.4" y="112.2" width="6" height="6"/><rect x="1093.4" y="123.8" width="6" height="6"/><rect x="1093.4" y="135.4" width="6" height="6"/><rect x="1103.4" y="100.6" width="6" height="6"/><rect x="1103.4" y="112.2" width="6" height="6"/><rect x="1103.4" y="123.8" width="6" height="6"/><rect x="1103.4" y="135.4" width="6" height="6"/><rect x="1137.045652173913" y="144" width="72" height="6"/><line x1="1146.0" y1="144" x2="1146.0" y2="102"/><line x1="1156.8" y1="144" x2="1156.8" y2="102"/><line x1="1167.6" y1="144" x2="1167.6" y2="102"/><line x1="1178.4" y1="144" x2="1178.4" y2="102"/><line x1="1189.2" y1="144" x2="1189.2" y2="102"/><line x1="1200.0" y1="144" x2="1200.0" y2="102"/><rect x="1134.045652173913" y="96" width="78" height="6"/><path d="M1134.045652173913,96 L1173.0,80 L1212.0,96"/><line x1="1250.0" y1="150" x2="1250.0" y2="128.0"/><circle cx="1250.0" cy="113.0" r="15.0"/><circle cx="1239.5" cy="119.0" r="9.0"/><circle cx="1260.5" cy="119.0" r="9.0"/><rect x="1287.9" y="84" width="46" height="66"/><rect x="1296.4" y="94.2" width="6" height="6"/><rect x="1296.4" y="107.4" width="6" height="6"/><rect x="1296.4" y="120.6" width="6" height="6"/><rect x="1296.4" y="133.8" width="6" height="6"/><rect x="1307.9" y="94.2" width="6" height="6"/><rect x="1307.9" y="107.4" width="6" height="6"/><rect x="1307.9" y="120.6" width="6" height="6"/><rect x="1307.9" y="133.8" width="6" height="6"/><rect x="1319.4" y="94.2" width="6" height="6"/><rect x="1319.4" y="107.4" width="6" height="6"/><rect x="1319.4" y="120.6" width="6" height="6"/><rect x="1319.4" y="133.8" width="6" height="6"/><line x1="1365.5" y1="150" x2="1365.5" y2="98.0"/><circle cx="1365.5" cy="98.0" r="2.2"/><line x1="1365.5" y1="98.0" x2="1365.5" y2="83.0"/><line x1="1365.5" y1="98.0" x2="1378.5" y2="106.0"/><line x1="1365.5" y1="98.0" x2="1352.5" y2="106.0"/><rect x="1397.2" y="100" width="34" height="50"/><rect x="1405.5" y="109.5" width="6" height="6"/><rect x="1405.5" y="122.0" width="6" height="6"/><rect x="1405.5" y="134.5" width="6" height="6"/><rect x="1416.8" y="109.5" width="6" height="6"/><rect x="1416.8" y="122.0" width="6" height="6"/><rect x="1416.8" y="134.5" width="6" height="6"/></g></svg>