<svg xmlns="http://www.w3.org/2000/svg" viewBox="0 52 1440 104" preserveAspectRatio="xMidYMax meet"><g fill="none" stroke="#1B1622" stroke-width="1.2" stroke-linecap="round" stroke-linejoin="round"><path d="M0 150 H1440"/><rect x="28" y="144" width="94" height="6"/><line x1="37" y1="144" x2="37" y2="102"/><line x1="52" y1="144" x2="52" y2="102"/><line x1="67" y1="144" x2="67" y2="102"/><line x1="83" y1="144" x2="83" y2="102"/><line x1="98" y1="144" x2="98" y2="102"/><line x1="113" y1="144" x2="113" y2="102"/><rect x="25" y="96" width="100" height="6"/><path d="M25,96 L75,80 L125,96"/><line x1="150" y1="150" x2="150" y2="128"/><circle cx="150" cy="113" r="15"/><circle cx="140" cy="119" r="9"/><circle cx="160" cy="119" r="9"/><rect x="178" y="90" width="44" height="60"/><rect x="186" y="99" width="6" height="6"/><rect x="186" y="111" width="6" height="6"/><rect x="186" y="123" width="6" height="6"/><rect x="186" y="135" width="6" height="6"/><rect x="197" y="99" width="6" height="6"/><rect x="197" y="111" width="6" height="6"/><rect x="197" y="123" width="6" height="6"/><rect x="197" y="135" width="6" height="6"/><rect x="208" y="99" width="6" height="6"/><rect x="208" y="111" width="6" height="6"/><rect x="208" y="123" width="6" height="6"/><rect x="208" y="135" width="6" height="6"/><rect x="230" y="108" width="28" height="42"/><rect x="236" y="116" width="6" height="6"/><rect x="236" y="126" width="6" height="6"/><rect x="236" y="136" width="6" height="6"/><rect x="246" y="116" width="6" height="6"/><rect x="246" y="126" width="6" height="6"/><rect x="246" y="136" width="6" height="6"/><line x1="278" y1="150" x2="278" y2="131"/><circle cx="278" cy="119" r="13"/><circle cx="269" cy="124" r="8"/><circle cx="287" cy="124" r="8"/><rect x="302" y="72" width="50" height="78"/><rect x="312" y="82" width="6" height="6"/><rect x="312" y="95" width="6" height="6"/><rect x="312" y="108" width="6" height="6"/><rect x="312" y="121" width="6" height="6"/><rect x="312" y="134" width="6" height="6"/><rect x="324" y="82" width="6" height="6"/><rect x="324" y="95" width="6" height="6"/><rect x="324" y="108" width="6" height="6"/><rect x="324" y="121" width="6" height="6"/><rect x="324" y="134" width="6" height="6"/><rect x="336" y="82" width="6" height="6"/><rect x="336" y="95" width="6" height="6"/><rect x="336" y="108" width="6" height="6"/><rect x="336" y="121" width="6" height="6"/><rect x="336" y="134" width="6" height="6"/><rect x="368" y="112" width="52" height="38"/><path d="M380,112 a14,14 0 0 1 28,0"/><line x1="394" y1="90" x2="394" y2="98"/><line x1="390" y1="94" x2="398" y2="94"/><rect x="377" y="124" width="7" height="15"/><rect x="404" y="124" width="7" height="15"/><rect x="434" y="102" width="34" height="48"/><rect x="442" y="111" width="6" height="6"/><rect x="442" y="123" width="6" height="6"/><rect x="442" y="135" width="6" height="6"/><rect x="454" y="111" width="6" height="6"/><rect x="454" y="123" width="6" height="6"/><rect x="454" y="135" width="6" height="6"/><line x1="488" y1="150" x2="488" y2="100"/><circle cx="488" cy="100" r="2.2"/><line x1="488" y1="100" x2="488" y2="85"/><line x1="488" y1="100" x2="501" y2="108"/><line x1="488" y1="100" x2="475" y2="108"/><rect x="512" y="82" width="46" height="68"/><rect x="520" y="90" width="6" height="6"/><rect x="520" y="102" width="6" height="6"/><rect x="520" y="113" width="6" height="6"/><rect x="520" y="124" width="6" height="6"/><rect x="520" y="136" width="6" height="6"/><rect x="532" y="90" width="6" height="6"/><rect x="532" y="102" width="6" height="6"/><rect x="532" y="113" width="6" height="6"/><rect x="532" y="124" width="6" height="6"/><rect x="532" y="136" width="6" height="6"/><rect x="544" y="90" width="6" height="6"/><rect x="544" y="102" width="6" height="6"/><rect x="544" y="113" width="6" height="6"/><rect x="544" y="124" width="6" height="6"/><rect x="544" y="136" width="6" height="6"/><line x1="576" y1="150" x2="576" y2="128"/><circle cx="576" cy="113" r="15"/><circle cx="566" cy="119" r="9"/><circle cx="586" cy="119" r="9"/><rect x="602" y="96" width="54" height="54"/><rect x="610" y="106" width="6" height="6"/><rect x="610" y="120" width="6" height="6"/><rect x="610" y="134" width="6" height="6"/><rect x="621" y="106" width="6" height="6"/><rect x="621" y="120" width="6" height="6"/><rect x="621" y="134" width="6" height="6"/><rect x="631" y="106" width="6" height="6"/><rect x="631" y="120" width="6" height="6"/><rect x="631" y="134" width="6" height="6"/><rect x="642" y="106" width="6" height="6"/><rect x="642" y="120" width="6" height="6"/><rect x="642" y="134" width="6" height="6"/><rect x="664" y="66" width="28" height="84"/><rect x="670" y="75" width="6" height="6"/><rect x="670" y="87" width="6" height="6"/><rect x="670" y="99" width="6" height="6"/><rect x="670" y="111" width="6" height="6"/><rect x="670" y="123" width="6" height="6"/><rect x="670" y="135" width="6" height="6"/><rect x="680" y="75" width="6" height="6"/><rect x="680" y="87" width="6" height="6"/><rect x="680" y="99" width="6" height="6"/><rect x="680" y="111" width="6" height="6"/><rect x="680" y="123" width="6" height="6"/><rect x="680" y="135" width="6" height="6"/><rect x="700" y="106" width="40" height="44"/><rect x="707" y="114" width="6" height="6"/><rect x="707" y="125" width="6" height="6"/><rect x="707" y="136" width="6" height="6"/><rect x="717" y="114" width="6" height="6"/><rect x="717" y="125" width="6" height="6"/><rect x="717" y="136" width="6" height="6"/><rect x="727" y="114" width="6" height="6"/><rect x="727" y="125" width="6" height="6"/><rect x="727" y="136" width="6" height="6"/><line x1="758" y1="150" x2="758" y2="92"/><circle cx="758" cy="92" r="2.2"/><line x1="758" y1="92" x2="758" y2="77"/><line x1="758" y1="92" x2="771" y2="100"/><line x1="758" y1="92" x2="745" y2="100"/><rect x="784" y="80" width="50" height="70"/><rect x="794" y="89" width="6" height="6"/><rect x="794" y="100" width="6" height="6"/><rect x="794" y="112" width="6" height="6"/><rect x="794" y="124" width="6" height="6"/><rect x="794" y="135" width="6" height="6"/><rect x="806" y="89" width="6" height="6"/><rect x="806" y="100" width="6" height="6"/><rect x="806" y="112" width="6" height="6"/><rect x="806" y="124" width="6" height="6"/><rect x="806" y="135" width="6" height="6"/><rect x="818" y="89" width="6" height="6"/><rect x="818" y="100" width="6" height="6"/><rect x="818" y="112" width="6" height="6"/><rect x="818" y="124" width="6" height="6"/><rect x="818" y="135" width="6" height="6"/><line x1="846" y1="150" x2="846" y2="130"/><circle cx="846" cy="117" r="14"/><circle cx="837" cy="122" r="8"/><circle cx="855" cy="122" r="8"/><rect x="870" y="98" width="44" height="52"/><rect x="878" y="108" width="6" height="6"/><rect x="878" y="121" width="6" height="6"/><rect x="878" y="134" width="6" height="6"/><rect x="889" y="108" width="6" height="6"/><rect x="889" y="121" width="6" height="6"/><rect x="889" y="134" width="6" height="6"/><rect x="900" y="108" width="6" height="6"/><rect x="900" y="121" width="6" height="6"/><rect x="900" y="134" width="6" height="6"/><rect x="922" y="64" width="58" height="86"/><rect x="931" y="73" width="6" height="6"/><rect x="931" y="86" width="6" height="6"/><rect x="931" y="98" width="6" height="6"/><rect x="931" y="110" width="6" height="6"/><rect x="931" y="122" width="6" height="6"/><rect x="931" y="135" width="6" height="6"/><rect x="942" y="73" width="6" height="6"/><rect x="942" y="86" width="6" height="6"/><rect x="942" y="98" width="6" height="6"/><rect x="942" y="110" width="6" height="6"/><rect x="942" y="122" width="6" height="6"/><rect x="942" y="135" width="6" height="6"/><rect x="954" y="73" width="6" height="6"/><rect x="954" y="86" width="6" height="6"/><rect x="954" y="98" width="6" height="6"/><rect x="954" y="110" width="6" height="6"/><rect x="954" y="122" width="6" height="6"/><rect x="954" y="135" width="6" height="6"/><rect x="965" y="73" width="6" height="6"/><rect x="965" y="86" width="6" height="6"/><rect x="965" y="98" width="6" height="6"/><rect x="965" y="110" width="6" height="6"/><rect x="965" y="122" width="6" height="6"/><rect x="965" y="135" width="6" height="6"/><rect x="990" y="92" width="40" height="58"/><rect x="997" y="101" width="6" height="6"/><rect x="997" y="112" width="6" height="6"/><rect x="997" y="124" width="6" height="6"/><rect x="997" y="135" width="6" height="6"/><rect x="1007" y="101" width="6" height="6"/><rect x="1007" y="112" width="6" height="6"/><rect x="1007" y="124" width="6" height="6"/><rect x="1007" y="135" width="6" height="6"/><rect x="1017" y="101" width="6" height="6"/><rect x="1017" y="112" width="6" height="6"/><rect x="1017" y="124" width="6" height="6"/><rect x="1017" y="135" width="6" height="6"/><rect x="1042" y="144" width="72" height="6"/><line x1="1051" y1="144" x2="1051" y2="102"/><line x1="1062" y1="144" x2="1062" y2="102"/><line x1="1073" y1="144" x2="1073" y2="102"/><line x1="1083" y1="144" x2="1083" y2="102"/><line x1="1094" y1="144" x2="1094" y2="102"/><line x1="1105" y1="144" x2="1105" y2="102"/><rect x="1039" y="96" width="78" height="6"/><path d="M1039,96 L1078,80 L1117,96"/><line x1="1128" y1="150" x2="1128" y2="128"/><circle cx="1128" cy="113" r="15"/><circle cx="1118" cy="119" r="9"/><circle cx="1138" cy="119" r="9"/><rect x="1152" y="84" width="46" height="66"/><rect x="1160" y="94" width="6" height="6"/><rect x="1160" y="107" width="6" height="6"/><rect x="1160" y="121" width="6" height="6"/><rect x="1160" y="134" width="6" height="6"/><rect x="1172" y="94" width="6" height="6"/><rect x="1172" y="107" width="6" height="6"/><rect x="1172" y="121" width="6" height="6"/><rect x="1172" y="134" width="6" height="6"/><rect x="1184" y="94" width="6" height="6"/><rect x="1184" y="107" width="6" height="6"/><rect x="1184" y="121" width="6" height="6"/><rect x="1184" y="134" width="6" height="6"/><line x1="1214" y1="150" x2="1214" y2="102"/><circle cx="1214" cy="102" r="2.2"/><line x1="1214" y1="102" x2="1214" y2="87"/><line x1="1214" y1="102" x2="1227" y2="110"/><line x1="1214" y1="102" x2="1201" y2="110"/><rect x="1240" y="96" width="54" height="54"/><rect x="1248" y="106" width="6" height="6"/><rect x="1248" y="120" width="6" height="6"/><rect x="1248" y="134" width="6" height="6"/><rect x="1259" y="106" width="6" height="6"/><rect x="1259" y="120" width="6" height="6"/><rect x="1259" y="134" width="6" height="6"/><rect x="1269" y="106" width="6" height="6"/><rect x="1269" y="120" width="6" height="6"/><rect x="1269" y="134" width="6" height="6"/><rect x="1280" y="106" width="6" height="6"/><rect x="1280" y="120" width="6" height="6"/><rect x="1280" y="134" width="6" height="6"/><rect x="1302" y="72" width="32" height="78"/><rect x="1310" y="82" width="6" height="6"/><rect x="1310" y="95" width="6" height="6"/><rect x="1310" y="108" width="6" height="6"/><rect x="1310" y="121" width="6" height="6"/><rect x="1310" y="134" width="6" height="6"/><rect x="1320" y="82" width="6" height="6"/><rect x="1320" y="95" width="6" height="6"/><rect x="1320" y="108" width="6" height="6"/><rect x="1320" y="121" width="6" height="6"/><rect x="1320" y="134" width="6" height="6"/><line x1="1352" y1="150" x2="1352" y2="131"/><circle cx="1352" cy="119" r="13"/><circle cx="1343" cy="124" r="8"/><circle cx="1361" cy="124" r="8"/><rect x="1378" y="102" width="40" height="48"/><rect x="1385" y="111" width="6" height="6"/><rect x="1385" y="123" width="6" height="6"/><rect x="1385" y="135" width="6" height="6"/><rect x="1395" y="111" width="6" height="6"/><rect x="1395" y="123" width="6" height="6"/><rect x="1395" y="135" width="6" height="6"/><rect x="1405" y="111" width="6" height="6"/><rect x="1405" y="123" width="6" height="6"/><rect x="1405" y="135" width="6" height="6"/></g></svg>